<svg width="56" height="55" viewBox="0 0 56 55" fill="none" xmlns="http://www.w3.org/2000/svg">
<path d="M50.6759 19.1033H26.8454C25.1361 19.1033 23.628 20.6113 23.5271 22.3206L22.019 51.9815C22.019 52.7857 22.2204 53.4895 22.8232 54.0929C23.3257 54.6963 24.1305 54.9981 24.9346 54.9981H52.6854C53.4896 54.9981 54.1934 54.6963 54.7968 54.0929C55.2993 53.4894 55.601 52.7856 55.601 51.9815L54.093 22.3206C53.8923 20.5109 52.3843 19.1033 50.6749 19.1033H50.6759ZM48.0613 29.6606C48.0613 34.7887 43.9386 38.9113 38.8106 38.9113C33.6825 38.9113 29.5599 34.7887 29.5599 29.6606L29.5605 27.147C29.5605 26.1414 30.3647 25.3373 31.3702 25.3373C32.3758 25.3373 33.1799 26.1415 33.1799 27.147V29.6606C33.1799 32.7776 35.6936 35.1909 38.7102 35.1909C41.8272 35.1909 44.2405 32.6773 44.2405 29.6606V27.147C44.2405 26.1414 45.0447 25.3373 46.0502 25.3373C47.0558 25.3373 47.8599 26.1415 47.8599 27.147L47.8605 29.6606H48.0613Z" fill="white"/>
<path d="M35.8948 15.3834V12.2664C35.8948 10.5571 34.4872 9.14941 32.7778 9.14941H3.11701C1.40766 9.14941 0 10.5571 0 12.2664V51.8831C0 53.5925 1.40764 55.0001 3.11701 55.0001H19.0038C18.5013 53.9946 18.2999 52.9891 18.4003 51.7828L19.8079 22.122C20.0093 18.4016 23.1263 15.3854 26.8462 15.3854L35.8948 15.3834Z" fill="white"/>
<path d="M27.4481 14.8808H10.4547V8.44606C10.4547 3.82104 14.2756 0.00012207 18.9007 0.00012207C23.5257 0.00012207 27.3466 3.82104 27.3466 8.44606L27.3472 14.8808H27.4481ZM13.472 11.8641H24.3311V8.44542C24.3311 5.42876 21.9178 3.01549 18.9011 3.01549C15.8845 3.01549 13.4712 5.42876 13.4712 8.44542L13.472 11.8641Z" fill="white"/>
</svg>
