<svg width="713" height="79" viewBox="0 0 713 79" fill="none" xmlns="http://www.w3.org/2000/svg">
<path d="M9 42H7.5C7.5 41.1716 8.17157 40.5 9 40.5V42ZM9 79L0.339752 64H17.6602L9 79ZM358.488 43.5C357.66 43.5 356.988 42.8284 356.988 42C356.988 41.1716 357.66 40.5 358.488 40.5V43.5ZM340.067 40.5C340.896 40.5 341.567 41.1716 341.567 42C341.567 42.8284 340.896 43.5 340.067 43.5V40.5ZM339.044 43.5C338.215 43.5 337.544 42.8284 337.544 42C337.544 41.1716 338.215 40.5 339.044 40.5V43.5ZM320.623 40.5C321.451 40.5 322.123 41.1716 322.123 42C322.123 42.8284 321.451 43.5 320.623 43.5V40.5ZM319.599 43.5C318.771 43.5 318.099 42.8284 318.099 42C318.099 41.1716 318.771 40.5 319.599 40.5V43.5ZM301.178 40.5C302.007 40.5 302.678 41.1716 302.678 42C302.678 42.8284 302.007 43.5 301.178 43.5V40.5ZM300.155 43.5C299.327 43.5 298.655 42.8284 298.655 42C298.655 41.1716 299.327 40.5 300.155 40.5V43.5ZM281.734 40.5C282.562 40.5 283.234 41.1716 283.234 42C283.234 42.8284 282.562 43.5 281.734 43.5V40.5ZM280.711 43.5C279.882 43.5 279.211 42.8284 279.211 42C279.211 41.1716 279.882 40.5 280.711 40.5V43.5ZM262.289 40.5C263.118 40.5 263.789 41.1716 263.789 42C263.789 42.8284 263.118 43.5 262.289 43.5V40.5ZM261.266 43.5C260.438 43.5 259.766 42.8284 259.766 42C259.766 41.1716 260.438 40.5 261.266 40.5V43.5ZM242.845 40.5C243.673 40.5 244.345 41.1716 244.345 42C244.345 42.8284 243.673 43.5 242.845 43.5V40.5ZM241.822 43.5C240.993 43.5 240.322 42.8284 240.322 42C240.322 41.1716 240.993 40.5 241.822 40.5V43.5ZM223.401 40.5C224.229 40.5 224.901 41.1716 224.901 42C224.901 42.8284 224.229 43.5 223.401 43.5V40.5ZM222.377 43.5C221.549 43.5 220.877 42.8284 220.877 42C220.877 41.1716 221.549 40.5 222.377 40.5V43.5ZM203.956 40.5C204.785 40.5 205.456 41.1716 205.456 42C205.456 42.8284 204.785 43.5 203.956 43.5V40.5ZM202.933 43.5C202.104 43.5 201.433 42.8284 201.433 42C201.433 41.1716 202.104 40.5 202.933 40.5V43.5ZM184.512 40.5C185.34 40.5 186.012 41.1716 186.012 42C186.012 42.8284 185.34 43.5 184.512 43.5V40.5ZM183.488 43.5C182.66 43.5 181.988 42.8284 181.988 42C181.988 41.1716 182.66 40.5 183.488 40.5V43.5ZM165.067 40.5C165.896 40.5 166.567 41.1716 166.567 42C166.567 42.8284 165.896 43.5 165.067 43.5V40.5ZM164.044 43.5C163.215 43.5 162.544 42.8284 162.544 42C162.544 41.1716 163.215 40.5 164.044 40.5V43.5ZM145.623 40.5C146.451 40.5 147.123 41.1716 147.123 42C147.123 42.8284 146.451 43.5 145.623 43.5V40.5ZM144.599 43.5C143.771 43.5 143.099 42.8284 143.099 42C143.099 41.1716 143.771 40.5 144.599 40.5V43.5ZM126.178 40.5C127.007 40.5 127.678 41.1716 127.678 42C127.678 42.8284 127.007 43.5 126.178 43.5V40.5ZM125.155 43.5C124.327 43.5 123.655 42.8284 123.655 42C123.655 41.1716 124.327 40.5 125.155 40.5V43.5ZM106.734 40.5C107.562 40.5 108.234 41.1716 108.234 42C108.234 42.8284 107.562 43.5 106.734 43.5V40.5ZM105.711 43.5C104.882 43.5 104.211 42.8284 104.211 42C104.211 41.1716 104.882 40.5 105.711 40.5V43.5ZM87.2895 40.5C88.1179 40.5 88.7895 41.1716 88.7895 42C88.7895 42.8284 88.1179 43.5 87.2895 43.5V40.5ZM86.2661 43.5C85.4377 43.5 84.7661 42.8284 84.7661 42C84.7661 41.1716 85.4377 40.5 86.2661 40.5V43.5ZM67.845 40.5C68.6735 40.5 69.345 41.1716 69.345 42C69.345 42.8284 68.6735 43.5 67.845 43.5V40.5ZM66.8216 43.5C65.9932 43.5 65.3216 42.8284 65.3216 42C65.3216 41.1716 65.9932 40.5 66.8216 40.5V43.5ZM48.4006 40.5C49.229 40.5 49.9006 41.1716 49.9006 42C49.9006 42.8284 49.229 43.5 48.4006 43.5V40.5ZM47.3772 43.5C46.5487 43.5 45.8772 42.8284 45.8772 42C45.8772 41.1716 46.5487 40.5 47.3772 40.5V43.5ZM28.9561 40.5C29.7845 40.5 30.4561 41.1716 30.4561 42C30.4561 42.8284 29.7845 43.5 28.9561 43.5V40.5ZM27.9327 43.5C27.1043 43.5 26.4327 42.8284 26.4327 42C26.4327 41.1716 27.1043 40.5 27.9327 40.5V43.5ZM9.51166 40.5C10.3401 40.5 11.0117 41.1716 11.0117 42C11.0117 42.8284 10.3401 43.5 9.51166 43.5V40.5ZM10.5 42.4868C10.5 43.3153 9.82843 43.9868 9 43.9868C8.17157 43.9868 7.5 43.3153 7.5 42.4868H10.5ZM7.5 60.0132C7.5 59.1847 8.17157 58.5132 9 58.5132C9.82843 58.5132 10.5 59.1847 10.5 60.0132H7.5ZM10.5 60.9868C10.5 61.8153 9.82843 62.4868 9 62.4868C8.17157 62.4868 7.5 61.8153 7.5 60.9868H10.5ZM7.5 78.5132C7.5 77.6847 8.17157 77.0132 9 77.0132C9.82843 77.0132 10.5 77.6847 10.5 78.5132H7.5ZM359 43.5H358.488V40.5H359V43.5ZM340.067 43.5H339.044V40.5H340.067V43.5ZM320.623 43.5H319.599V40.5H320.623V43.5ZM301.178 43.5H300.155V40.5H301.178V43.5ZM281.734 43.5H280.711V40.5H281.734V43.5ZM262.289 43.5H261.266V40.5H262.289V43.5ZM242.845 43.5H241.822V40.5H242.845V43.5ZM223.401 43.5H222.377V40.5H223.401V43.5ZM203.956 43.5H202.933V40.5H203.956V43.5ZM184.512 43.5H183.488V40.5H184.512V43.5ZM165.067 43.5H164.044V40.5H165.067V43.5ZM145.623 43.5H144.599V40.5H145.623V43.5ZM126.178 43.5H125.155V40.5H126.178V43.5ZM106.734 43.5H105.711V40.5H106.734V43.5ZM87.2895 43.5H86.2661V40.5H87.2895V43.5ZM67.845 43.5H66.8216V40.5H67.845V43.5ZM48.4006 43.5H47.3772V40.5H48.4006V43.5ZM28.9561 43.5H27.9327V40.5H28.9561V43.5ZM9.51166 43.5H9V40.5H9.51166V43.5ZM10.5 42V42.4868H7.5V42H10.5ZM10.5 60.0132V60.9868H7.5V60.0132H10.5Z" fill="#FF7722"/>
<path d="M704 42H705.5C705.5 42.8284 704.828 43.5 704 43.5V42ZM704 3.8147e-06L712.66 15H695.34L704 3.8147e-06ZM359.504 40.5C360.333 40.5 361.004 41.1716 361.004 42C361.004 42.8284 360.333 43.5 359.504 43.5V40.5ZM377.662 43.5C376.834 43.5 376.162 42.8284 376.162 42C376.162 41.1716 376.834 40.5 377.662 40.5V43.5ZM378.671 40.5C379.499 40.5 380.171 41.1716 380.171 42C380.171 42.8284 379.499 43.5 378.671 43.5V40.5ZM396.829 43.5C396.001 43.5 395.329 42.8284 395.329 42C395.329 41.1716 396.001 40.5 396.829 40.5V43.5ZM397.838 40.5C398.666 40.5 399.338 41.1716 399.338 42C399.338 42.8284 398.666 43.5 397.838 43.5V40.5ZM415.996 43.5C415.167 43.5 414.496 42.8284 414.496 42C414.496 41.1716 415.167 40.5 415.996 40.5V43.5ZM417.004 40.5C417.833 40.5 418.504 41.1716 418.504 42C418.504 42.8284 417.833 43.5 417.004 43.5V40.5ZM435.162 43.5C434.334 43.5 433.662 42.8284 433.662 42C433.662 41.1716 434.334 40.5 435.162 40.5V43.5ZM436.171 40.5C436.999 40.5 437.671 41.1716 437.671 42C437.671 42.8284 436.999 43.5 436.171 43.5V40.5ZM454.329 43.5C453.501 43.5 452.829 42.8284 452.829 42C452.829 41.1716 453.501 40.5 454.329 40.5V43.5ZM455.338 40.5C456.166 40.5 456.838 41.1716 456.838 42C456.838 42.8284 456.166 43.5 455.338 43.5V40.5ZM473.496 43.5C472.667 43.5 471.996 42.8284 471.996 42C471.996 41.1716 472.667 40.5 473.496 40.5V43.5ZM474.504 40.5C475.333 40.5 476.004 41.1716 476.004 42C476.004 42.8284 475.333 43.5 474.504 43.5V40.5ZM492.662 43.5C491.834 43.5 491.162 42.8284 491.162 42C491.162 41.1716 491.834 40.5 492.662 40.5V43.5ZM493.671 40.5C494.499 40.5 495.171 41.1716 495.171 42C495.171 42.8284 494.499 43.5 493.671 43.5V40.5ZM511.829 43.5C511.001 43.5 510.329 42.8284 510.329 42C510.329 41.1716 511.001 40.5 511.829 40.5V43.5ZM512.838 40.5C513.666 40.5 514.338 41.1716 514.338 42C514.338 42.8284 513.666 43.5 512.838 43.5V40.5ZM530.996 43.5C530.167 43.5 529.496 42.8284 529.496 42C529.496 41.1716 530.167 40.5 530.996 40.5V43.5ZM532.004 40.5C532.833 40.5 533.504 41.1716 533.504 42C533.504 42.8284 532.833 43.5 532.004 43.5V40.5ZM550.162 43.5C549.334 43.5 548.662 42.8284 548.662 42C548.662 41.1716 549.334 40.5 550.162 40.5V43.5ZM551.171 40.5C551.999 40.5 552.671 41.1716 552.671 42C552.671 42.8284 551.999 43.5 551.171 43.5V40.5ZM569.329 43.5C568.501 43.5 567.829 42.8284 567.829 42C567.829 41.1716 568.501 40.5 569.329 40.5V43.5ZM570.338 40.5C571.166 40.5 571.838 41.1716 571.838 42C571.838 42.8284 571.166 43.5 570.338 43.5V40.5ZM588.496 43.5C587.667 43.5 586.996 42.8284 586.996 42C586.996 41.1716 587.667 40.5 588.496 40.5V43.5ZM589.504 40.5C590.333 40.5 591.004 41.1716 591.004 42C591.004 42.8284 590.333 43.5 589.504 43.5V40.5ZM607.662 43.5C606.834 43.5 606.162 42.8284 606.162 42C606.162 41.1716 606.834 40.5 607.662 40.5V43.5ZM608.671 40.5C609.5 40.5 610.171 41.1716 610.171 42C610.171 42.8284 609.5 43.5 608.671 43.5V40.5ZM626.829 43.5C626.001 43.5 625.329 42.8284 625.329 42C625.329 41.1716 626.001 40.5 626.829 40.5V43.5ZM627.838 40.5C628.666 40.5 629.338 41.1716 629.338 42C629.338 42.8284 628.666 43.5 627.838 43.5V40.5ZM645.996 43.5C645.167 43.5 644.496 42.8284 644.496 42C644.496 41.1716 645.167 40.5 645.996 40.5V43.5ZM647.004 40.5C647.833 40.5 648.504 41.1716 648.504 42C648.504 42.8284 647.833 43.5 647.004 43.5V40.5ZM665.162 43.5C664.334 43.5 663.662 42.8284 663.662 42C663.662 41.1716 664.334 40.5 665.162 40.5V43.5ZM666.171 40.5C666.999 40.5 667.671 41.1716 667.671 42C667.671 42.8284 666.999 43.5 666.171 43.5V40.5ZM684.329 43.5C683.5 43.5 682.829 42.8284 682.829 42C682.829 41.1716 683.5 40.5 684.329 40.5V43.5ZM685.338 40.5C686.166 40.5 686.838 41.1716 686.838 42C686.838 42.8284 686.166 43.5 685.338 43.5V40.5ZM703.496 43.5C702.667 43.5 701.996 42.8284 701.996 42C701.996 41.1716 702.667 40.5 703.496 40.5V43.5ZM702.5 41.4474C702.5 40.6189 703.172 39.9474 704 39.9474C704.828 39.9474 705.5 40.6189 705.5 41.4474H702.5ZM705.5 21.5526C705.5 22.3811 704.828 23.0526 704 23.0526C703.172 23.0526 702.5 22.3811 702.5 21.5526H705.5ZM702.5 20.4474C702.5 19.6189 703.172 18.9474 704 18.9474C704.828 18.9474 705.5 19.6189 705.5 20.4474H702.5ZM705.5 0.552635C705.5 1.38106 704.828 2.05264 704 2.05264C703.172 2.05264 702.5 1.38106 702.5 0.552635H705.5ZM359 40.5H359.504V43.5H359V40.5ZM377.662 40.5H378.671V43.5H377.662V40.5ZM396.829 40.5H397.838V43.5H396.829V40.5ZM415.996 40.5H417.004V43.5H415.996V40.5ZM435.162 40.5H436.171V43.5H435.162V40.5ZM454.329 40.5H455.338V43.5H454.329V40.5ZM473.496 40.5H474.504V43.5H473.496V40.5ZM492.662 40.5H493.671V43.5H492.662V40.5ZM511.829 40.5H512.838V43.5H511.829V40.5ZM530.996 40.5H532.004V43.5H530.996V40.5ZM550.162 40.5H551.171V43.5H550.162V40.5ZM569.329 40.5H570.338V43.5H569.329V40.5ZM588.496 40.5H589.504V43.5H588.496V40.5ZM607.662 40.5H608.671V43.5H607.662V40.5ZM626.829 40.5H627.838V43.5H626.829V40.5ZM645.996 40.5H647.004V43.5H645.996V40.5ZM665.162 40.5H666.171V43.5H665.162V40.5ZM684.329 40.5H685.338V43.5H684.329V40.5ZM703.496 40.5H704V43.5H703.496V40.5ZM702.5 42V41.4474H705.5V42H702.5ZM702.5 21.5526V20.4474H705.5V21.5526H702.5Z" fill="#FF7722"/>
<path d="M346 42L365.5 53.2583V30.7417L346 42Z" fill="#FF7722"/>
</svg>
