<svg width="26" height="20" viewBox="0 0 26 20" fill="none" xmlns="http://www.w3.org/2000/svg">
<path d="M13 0C9.234 0 5.906 0.39 3.875 0.688C2.195 0.934 0.84 2.199 0.531 3.875C0.27 5.301 0 7.387 0 10C0 12.613 0.27 14.7 0.531 16.125C0.84 17.801 2.195 19.07 3.875 19.313C5.915 19.609 9.254 20 13 20C16.746 20 20.086 19.61 22.125 19.312C23.805 19.07 25.16 17.801 25.469 16.125C25.73 14.695 26 12.605 26 10C26 7.395 25.734 5.305 25.469 3.875C25.16 2.199 23.805 0.934 22.125 0.687C20.094 0.391 16.765 0 13 0ZM13 2C16.633 2 19.879 2.371 21.844 2.656C22.2524 2.71437 22.632 2.89971 22.9292 3.18578C23.2264 3.47186 23.4261 3.84416 23.5 4.25C23.742 5.57 24 7.527 24 10C24 12.469 23.742 14.43 23.5 15.75C23.4274 16.1564 23.2281 16.5294 22.9307 16.8157C22.6332 17.102 22.2529 17.2869 21.844 17.344C19.87 17.629 16.609 18 13 18C9.39 18 6.125 17.629 4.156 17.344C3.74741 17.2862 3.36745 17.1011 3.07014 16.8149C2.77284 16.5287 2.57333 16.1561 2.5 15.75C2.258 14.43 2 12.477 2 10C2 7.52 2.258 5.57 2.5 4.25C2.57333 3.84391 2.77284 3.47129 3.07014 3.18511C3.36745 2.89894 3.74741 2.71379 4.156 2.656C6.117 2.371 9.367 2 13 2ZM10 4.281V15.72L11.5 14.876L18.5 10.876L20 10L18.5 9.125L11.5 5.125L10 4.281ZM12 7.719L15.969 10L12 12.281V7.719Z" fill="black"/>
</svg>
