<svg width="23" height="21" viewBox="0 0 23 21" fill="none" xmlns="http://www.w3.org/2000/svg">
<path d="M3.14094 20.814C2.80035 20.88 2.45865 20.9405 2.116 20.9954C1.8285 21.0404 1.61 20.7478 1.72356 20.4862C1.8512 20.1917 1.96819 19.8929 2.07431 19.5903L2.07862 19.5763C2.43512 18.5636 2.7255 17.3991 2.83188 16.3147C1.06806 14.5848 0 12.3204 0 9.8451C0 4.40779 5.14912 0 11.5 0C17.8509 0 23 4.40779 23 9.8451C23 15.2824 17.8509 19.6902 11.5 19.6902C10.361 19.6917 9.22672 19.547 8.12619 19.2598C7.37869 19.6297 5.77012 20.3034 3.14094 20.814Z" fill="white"/>
</svg>
