<svg width="26" height="19" viewBox="0 0 26 19" fill="none" xmlns="http://www.w3.org/2000/svg">
<path d="M20.6765 13.9275C18.3459 15.108 16.0906 16.2885 12.8351 16.2885C9.57951 16.2885 7.32417 15.108 4.99357 13.9275M8.94466 15.6773C8.3944 16.48 7.80497 17.2552 7.17851 18C2.69939 17.8725 1 14.9654 1 14.9654C1.06366 10.8462 2.06187 6.79531 3.91931 3.11817C5.55206 1.84086 7.54153 1.10276 9.61228 1.00607L10.2192 2.40807C11.0861 2.28773 11.9599 2.22487 12.8351 2.21992C13.7141 2.22281 14.592 2.28364 15.463 2.402L16.07 1C18.1428 1.10193 20.1324 1.84646 21.7629 3.13031C23.6144 6.80477 24.6084 10.8513 24.6701 14.9654C24.6701 14.9654 22.9707 17.8725 18.4916 18C17.8746 17.2588 17.2953 16.487 16.7558 15.6876L8.94466 15.6773Z" stroke="black" stroke-width="1.4" stroke-linecap="round" stroke-linejoin="round"/>
</svg>
