<svg width="64" height="54" viewBox="0 0 64 54" fill="none" xmlns="http://www.w3.org/2000/svg">
<path d="M60.4854 5.39967H36.6575L30.6502 0.593489C30.1777 0.202238 29.5837 0 28.9628 0H11.8854C10.4002 0 9.18536 1.20166 9.18536 2.70006V10.7997H16.8399C18.0171 10.7997 19.1747 11.1885 20.0987 11.8951L24.043 14.8493H53.9782C56.5603 14.8493 58.7883 16.6777 59.2755 19.1972L63.1855 38.7478V8.09934C63.1855 6.60095 61.9839 5.39928 60.4855 5.39928L60.4854 5.39967Z" fill="white"/>
<path d="M56.6242 19.7105C56.3813 18.4549 55.2605 17.5506 53.9781 17.5506H23.1441L18.4594 14.0406C18.0005 13.6895 17.4203 13.5005 16.8395 13.5005H2.70553C1.89561 13.5005 1.13957 13.8511 0.626361 14.4588C0.113677 15.0797 -0.102764 15.8764 0.0460976 16.6726L6.31005 51.7725C6.5397 53.0549 7.66014 54.0001 8.96999 54.0001H60.1882C60.9982 54.0001 61.768 53.6357 62.2806 53.0011C62.7933 52.3802 62.996 51.5566 62.8339 50.7604L56.6242 19.7105ZM39.1482 38.0803L32.3995 44.8295C32.2747 44.9543 32.1253 45.0533 31.9598 45.1218C31.7948 45.1899 31.6195 45.2256 31.4437 45.2256C31.2679 45.2256 31.0931 45.1899 30.9281 45.1213C30.7625 45.0528 30.6132 44.9538 30.4883 44.829L23.7391 38.0798C23.2117 37.5524 23.2117 36.698 23.7391 36.171C24.2665 35.6436 25.1209 35.6436 25.6479 36.171L30.0932 40.6162L30.0937 26.3256C30.0937 25.5793 30.698 24.9755 31.4438 24.9755C32.1896 24.9755 32.7939 25.5792 32.7939 26.3256V40.6162L37.2392 36.171C37.7665 35.6436 38.621 35.6436 39.148 36.171C39.6758 36.6979 39.6758 37.5519 39.1484 38.0793L39.1482 38.0803Z" fill="white"/>
</svg>
