<svg width="713" height="79" viewBox="0 0 713 79" fill="none" xmlns="http://www.w3.org/2000/svg">
<path d="M9 37H7.5C7.5 37.8284 8.17157 38.5 9 38.5V37ZM9 0L0.339752 15H17.6602L9 0ZM358.488 35.5C357.66 35.5 356.988 36.1716 356.988 37C356.988 37.8284 357.66 38.5 358.488 38.5V35.5ZM340.067 38.5C340.896 38.5 341.567 37.8284 341.567 37C341.567 36.1716 340.896 35.5 340.067 35.5V38.5ZM339.044 35.5C338.215 35.5 337.544 36.1716 337.544 37C337.544 37.8284 338.215 38.5 339.044 38.5V35.5ZM320.623 38.5C321.451 38.5 322.123 37.8284 322.123 37C322.123 36.1716 321.451 35.5 320.623 35.5V38.5ZM319.599 35.5C318.771 35.5 318.099 36.1716 318.099 37C318.099 37.8284 318.771 38.5 319.599 38.5V35.5ZM301.178 38.5C302.007 38.5 302.678 37.8284 302.678 37C302.678 36.1716 302.007 35.5 301.178 35.5V38.5ZM300.155 35.5C299.327 35.5 298.655 36.1716 298.655 37C298.655 37.8284 299.327 38.5 300.155 38.5V35.5ZM281.734 38.5C282.562 38.5 283.234 37.8284 283.234 37C283.234 36.1716 282.562 35.5 281.734 35.5V38.5ZM280.711 35.5C279.882 35.5 279.211 36.1716 279.211 37C279.211 37.8284 279.882 38.5 280.711 38.5V35.5ZM262.289 38.5C263.118 38.5 263.789 37.8284 263.789 37C263.789 36.1716 263.118 35.5 262.289 35.5V38.5ZM261.266 35.5C260.438 35.5 259.766 36.1716 259.766 37C259.766 37.8284 260.438 38.5 261.266 38.5V35.5ZM242.845 38.5C243.673 38.5 244.345 37.8284 244.345 37C244.345 36.1716 243.673 35.5 242.845 35.5V38.5ZM241.822 35.5C240.993 35.5 240.322 36.1716 240.322 37C240.322 37.8284 240.993 38.5 241.822 38.5V35.5ZM223.401 38.5C224.229 38.5 224.901 37.8284 224.901 37C224.901 36.1716 224.229 35.5 223.401 35.5V38.5ZM222.377 35.5C221.549 35.5 220.877 36.1716 220.877 37C220.877 37.8284 221.549 38.5 222.377 38.5V35.5ZM203.956 38.5C204.785 38.5 205.456 37.8284 205.456 37C205.456 36.1716 204.785 35.5 203.956 35.5V38.5ZM202.933 35.5C202.104 35.5 201.433 36.1716 201.433 37C201.433 37.8284 202.104 38.5 202.933 38.5V35.5ZM184.512 38.5C185.34 38.5 186.012 37.8284 186.012 37C186.012 36.1716 185.34 35.5 184.512 35.5V38.5ZM183.488 35.5C182.66 35.5 181.988 36.1716 181.988 37C181.988 37.8284 182.66 38.5 183.488 38.5V35.5ZM165.067 38.5C165.896 38.5 166.567 37.8284 166.567 37C166.567 36.1716 165.896 35.5 165.067 35.5V38.5ZM164.044 35.5C163.215 35.5 162.544 36.1716 162.544 37C162.544 37.8284 163.215 38.5 164.044 38.5V35.5ZM145.623 38.5C146.451 38.5 147.123 37.8284 147.123 37C147.123 36.1716 146.451 35.5 145.623 35.5V38.5ZM144.599 35.5C143.771 35.5 143.099 36.1716 143.099 37C143.099 37.8284 143.771 38.5 144.599 38.5V35.5ZM126.178 38.5C127.007 38.5 127.678 37.8284 127.678 37C127.678 36.1716 127.007 35.5 126.178 35.5V38.5ZM125.155 35.5C124.327 35.5 123.655 36.1716 123.655 37C123.655 37.8284 124.327 38.5 125.155 38.5V35.5ZM106.734 38.5C107.562 38.5 108.234 37.8284 108.234 37C108.234 36.1716 107.562 35.5 106.734 35.5V38.5ZM105.711 35.5C104.882 35.5 104.211 36.1716 104.211 37C104.211 37.8284 104.882 38.5 105.711 38.5V35.5ZM87.2895 38.5C88.1179 38.5 88.7895 37.8284 88.7895 37C88.7895 36.1716 88.1179 35.5 87.2895 35.5V38.5ZM86.2661 35.5C85.4377 35.5 84.7661 36.1716 84.7661 37C84.7661 37.8284 85.4377 38.5 86.2661 38.5V35.5ZM67.845 38.5C68.6735 38.5 69.345 37.8284 69.345 37C69.345 36.1716 68.6735 35.5 67.845 35.5V38.5ZM66.8216 35.5C65.9932 35.5 65.3216 36.1716 65.3216 37C65.3216 37.8284 65.9932 38.5 66.8216 38.5V35.5ZM48.4006 38.5C49.229 38.5 49.9006 37.8284 49.9006 37C49.9006 36.1716 49.229 35.5 48.4006 35.5V38.5ZM47.3772 35.5C46.5487 35.5 45.8772 36.1716 45.8772 37C45.8772 37.8284 46.5487 38.5 47.3772 38.5V35.5ZM28.9561 38.5C29.7845 38.5 30.4561 37.8284 30.4561 37C30.4561 36.1716 29.7845 35.5 28.9561 35.5V38.5ZM27.9327 35.5C27.1043 35.5 26.4327 36.1716 26.4327 37C26.4327 37.8284 27.1043 38.5 27.9327 38.5V35.5ZM9.51166 38.5C10.3401 38.5 11.0117 37.8284 11.0117 37C11.0117 36.1716 10.3401 35.5 9.51166 35.5V38.5ZM10.5 36.5132C10.5 35.6847 9.82843 35.0132 9 35.0132C8.17157 35.0132 7.5 35.6847 7.5 36.5132H10.5ZM7.5 18.9868C7.5 19.8153 8.17157 20.4868 9 20.4868C9.82843 20.4868 10.5 19.8153 10.5 18.9868H7.5ZM10.5 18.0132C10.5 17.1847 9.82843 16.5132 9 16.5132C8.17157 16.5132 7.5 17.1847 7.5 18.0132H10.5ZM7.5 0.486843C7.5 1.31527 8.17157 1.98684 9 1.98684C9.82843 1.98684 10.5 1.31527 10.5 0.486843H7.5ZM359 35.5H358.488V38.5H359V35.5ZM340.067 35.5H339.044V38.5H340.067V35.5ZM320.623 35.5H319.599V38.5H320.623V35.5ZM301.178 35.5H300.155V38.5H301.178V35.5ZM281.734 35.5H280.711V38.5H281.734V35.5ZM262.289 35.5H261.266V38.5H262.289V35.5ZM242.845 35.5H241.822V38.5H242.845V35.5ZM223.401 35.5H222.377V38.5H223.401V35.5ZM203.956 35.5H202.933V38.5H203.956V35.5ZM184.512 35.5H183.488V38.5H184.512V35.5ZM165.067 35.5H164.044V38.5H165.067V35.5ZM145.623 35.5H144.599V38.5H145.623V35.5ZM126.178 35.5H125.155V38.5H126.178V35.5ZM106.734 35.5H105.711V38.5H106.734V35.5ZM87.2895 35.5H86.2661V38.5H87.2895V35.5ZM67.845 35.5H66.8216V38.5H67.845V35.5ZM48.4006 35.5H47.3772V38.5H48.4006V35.5ZM28.9561 35.5H27.9327V38.5H28.9561V35.5ZM9.51166 35.5H9V38.5H9.51166V35.5ZM10.5 37V36.5132H7.5V37H10.5ZM10.5 18.9868V18.0132H7.5V18.9868H10.5Z" fill="#FF7722"/>
<path d="M704 37H705.5C705.5 36.1716 704.828 35.5 704 35.5V37ZM704 79L712.66 64H695.34L704 79ZM359.504 38.5C360.333 38.5 361.004 37.8284 361.004 37C361.004 36.1716 360.333 35.5 359.504 35.5V38.5ZM377.662 35.5C376.834 35.5 376.162 36.1716 376.162 37C376.162 37.8284 376.834 38.5 377.662 38.5V35.5ZM378.671 38.5C379.499 38.5 380.171 37.8284 380.171 37C380.171 36.1716 379.499 35.5 378.671 35.5V38.5ZM396.829 35.5C396.001 35.5 395.329 36.1716 395.329 37C395.329 37.8284 396.001 38.5 396.829 38.5V35.5ZM397.838 38.5C398.666 38.5 399.338 37.8284 399.338 37C399.338 36.1716 398.666 35.5 397.838 35.5V38.5ZM415.996 35.5C415.167 35.5 414.496 36.1716 414.496 37C414.496 37.8284 415.167 38.5 415.996 38.5V35.5ZM417.004 38.5C417.833 38.5 418.504 37.8284 418.504 37C418.504 36.1716 417.833 35.5 417.004 35.5V38.5ZM435.162 35.5C434.334 35.5 433.662 36.1716 433.662 37C433.662 37.8284 434.334 38.5 435.162 38.5V35.5ZM436.171 38.5C436.999 38.5 437.671 37.8284 437.671 37C437.671 36.1716 436.999 35.5 436.171 35.5V38.5ZM454.329 35.5C453.501 35.5 452.829 36.1716 452.829 37C452.829 37.8284 453.501 38.5 454.329 38.5V35.5ZM455.338 38.5C456.166 38.5 456.838 37.8284 456.838 37C456.838 36.1716 456.166 35.5 455.338 35.5V38.5ZM473.496 35.5C472.667 35.5 471.996 36.1716 471.996 37C471.996 37.8284 472.667 38.5 473.496 38.5V35.5ZM474.504 38.5C475.333 38.5 476.004 37.8284 476.004 37C476.004 36.1716 475.333 35.5 474.504 35.5V38.5ZM492.662 35.5C491.834 35.5 491.162 36.1716 491.162 37C491.162 37.8284 491.834 38.5 492.662 38.5V35.5ZM493.671 38.5C494.499 38.5 495.171 37.8284 495.171 37C495.171 36.1716 494.499 35.5 493.671 35.5V38.5ZM511.829 35.5C511.001 35.5 510.329 36.1716 510.329 37C510.329 37.8284 511.001 38.5 511.829 38.5V35.5ZM512.838 38.5C513.666 38.5 514.338 37.8284 514.338 37C514.338 36.1716 513.666 35.5 512.838 35.5V38.5ZM530.996 35.5C530.167 35.5 529.496 36.1716 529.496 37C529.496 37.8284 530.167 38.5 530.996 38.5V35.5ZM532.004 38.5C532.833 38.5 533.504 37.8284 533.504 37C533.504 36.1716 532.833 35.5 532.004 35.5V38.5ZM550.162 35.5C549.334 35.5 548.662 36.1716 548.662 37C548.662 37.8284 549.334 38.5 550.162 38.5V35.5ZM551.171 38.5C551.999 38.5 552.671 37.8284 552.671 37C552.671 36.1716 551.999 35.5 551.171 35.5V38.5ZM569.329 35.5C568.501 35.5 567.829 36.1716 567.829 37C567.829 37.8284 568.501 38.5 569.329 38.5V35.5ZM570.338 38.5C571.166 38.5 571.838 37.8284 571.838 37C571.838 36.1716 571.166 35.5 570.338 35.5V38.5ZM588.496 35.5C587.667 35.5 586.996 36.1716 586.996 37C586.996 37.8284 587.667 38.5 588.496 38.5V35.5ZM589.504 38.5C590.333 38.5 591.004 37.8284 591.004 37C591.004 36.1716 590.333 35.5 589.504 35.5V38.5ZM607.662 35.5C606.834 35.5 606.162 36.1716 606.162 37C606.162 37.8284 606.834 38.5 607.662 38.5V35.5ZM608.671 38.5C609.5 38.5 610.171 37.8284 610.171 37C610.171 36.1716 609.5 35.5 608.671 35.5V38.5ZM626.829 35.5C626.001 35.5 625.329 36.1716 625.329 37C625.329 37.8284 626.001 38.5 626.829 38.5V35.5ZM627.838 38.5C628.666 38.5 629.338 37.8284 629.338 37C629.338 36.1716 628.666 35.5 627.838 35.5V38.5ZM645.996 35.5C645.167 35.5 644.496 36.1716 644.496 37C644.496 37.8284 645.167 38.5 645.996 38.5V35.5ZM647.004 38.5C647.833 38.5 648.504 37.8284 648.504 37C648.504 36.1716 647.833 35.5 647.004 35.5V38.5ZM665.162 35.5C664.334 35.5 663.662 36.1716 663.662 37C663.662 37.8284 664.334 38.5 665.162 38.5V35.5ZM666.171 38.5C666.999 38.5 667.671 37.8284 667.671 37C667.671 36.1716 666.999 35.5 666.171 35.5V38.5ZM684.329 35.5C683.5 35.5 682.829 36.1716 682.829 37C682.829 37.8284 683.5 38.5 684.329 38.5V35.5ZM685.338 38.5C686.166 38.5 686.838 37.8284 686.838 37C686.838 36.1716 686.166 35.5 685.338 35.5V38.5ZM703.496 35.5C702.667 35.5 701.996 36.1716 701.996 37C701.996 37.8284 702.667 38.5 703.496 38.5V35.5ZM702.5 37.5526C702.5 38.3811 703.172 39.0526 704 39.0526C704.828 39.0526 705.5 38.3811 705.5 37.5526H702.5ZM705.5 57.4474C705.5 56.6189 704.828 55.9474 704 55.9474C703.172 55.9474 702.5 56.6189 702.5 57.4474H705.5ZM702.5 58.5526C702.5 59.3811 703.172 60.0526 704 60.0526C704.828 60.0526 705.5 59.3811 705.5 58.5526H702.5ZM705.5 78.4474C705.5 77.6189 704.828 76.9474 704 76.9474C703.172 76.9474 702.5 77.6189 702.5 78.4474H705.5ZM359 38.5H359.504V35.5H359V38.5ZM377.662 38.5H378.671V35.5H377.662V38.5ZM396.829 38.5H397.838V35.5H396.829V38.5ZM415.996 38.5H417.004V35.5H415.996V38.5ZM435.162 38.5H436.171V35.5H435.162V38.5ZM454.329 38.5H455.338V35.5H454.329V38.5ZM473.496 38.5H474.504V35.5H473.496V38.5ZM492.662 38.5H493.671V35.5H492.662V38.5ZM511.829 38.5H512.838V35.5H511.829V38.5ZM530.996 38.5H532.004V35.5H530.996V38.5ZM550.162 38.5H551.171V35.5H550.162V38.5ZM569.329 38.5H570.338V35.5H569.329V38.5ZM588.496 38.5H589.504V35.5H588.496V38.5ZM607.662 38.5H608.671V35.5H607.662V38.5ZM626.829 38.5H627.838V35.5H626.829V38.5ZM645.996 38.5H647.004V35.5H645.996V38.5ZM665.162 38.5H666.171V35.5H665.162V38.5ZM684.329 38.5H685.338V35.5H684.329V38.5ZM703.496 38.5H704V35.5H703.496V38.5ZM702.5 37V37.5526H705.5V37H702.5ZM702.5 57.4474V58.5526H705.5V57.4474H702.5Z" fill="#FF7722"/>
<path d="M372 37L352.5 48.2583V25.7417L372 37Z" fill="#FF7722"/>
</svg>
