<svg width="12" height="13" viewBox="0 0 12 13" fill="none" xmlns="http://www.w3.org/2000/svg">
<path d="M0.883276 0C0.649017 0 0.424352 0.100814 0.258706 0.280264C0.0930591 0.459715 0 0.703101 0 0.956882V5.34514C5.00265e-05 5.59891 0.093142 5.84225 0.2588 6.02166L6.44173 12.7198C6.60737 12.8992 6.832 13 7.06621 13C7.30042 13 7.52505 12.8992 7.69068 12.7198L11.7414 8.33157C11.907 8.15213 12 7.90879 12 7.65506C12 7.40133 11.907 7.15799 11.7414 6.97854L5.55846 0.280367C5.39285 0.100904 5.16822 5.41953e-05 4.93398 0H0.883276ZM4.41638 3.34909C4.41638 3.72976 4.27679 4.09484 4.02832 4.36402C3.77985 4.63319 3.44286 4.78441 3.09147 4.78441C2.74008 4.78441 2.40308 4.63319 2.15461 4.36402C1.90614 4.09484 1.76655 3.72976 1.76655 3.34909C1.76655 2.96842 1.90614 2.60334 2.15461 2.33416C2.40308 2.06499 2.74008 1.91376 3.09147 1.91376C3.44286 1.91376 3.77985 2.06499 4.02832 2.33416C4.27679 2.60334 4.41638 2.96842 4.41638 3.34909Z" fill="white"/>
</svg>
