<svg width="24" height="20" viewBox="0 0 24 20" fill="none" xmlns="http://www.w3.org/2000/svg">
<path d="M20.7643 5.56117V6.15555C20.7643 12.1409 16.2216 19 7.90919 19C5.45526 19.0053 3.05345 18.2924 1 16.9494C1.35662 16.9978 1.71635 17.0196 2.07622 17.0148C4.11033 17.0204 6.08724 16.3421 7.68919 15.089C6.74419 15.0751 5.82761 14.7638 5.06974 14.1993C4.31186 13.6348 3.75125 12.8459 3.46757 11.9448C3.74906 12.0044 4.03604 12.0343 4.32378 12.0339C4.72559 12.034 5.12558 11.98 5.51297 11.8734C4.48943 11.6695 3.5686 11.1163 2.90805 10.3085C2.2475 9.50075 1.8883 8.48863 1.89189 7.44534V7.3859C2.51812 7.73559 3.2202 7.92736 3.9373 7.94461C2.98273 7.3167 2.30405 6.34811 2.03993 5.23677C1.7758 4.12542 1.94617 2.9552 2.51622 1.96521C3.65205 3.36169 5.06916 4.50358 6.67543 5.31666C8.28171 6.12974 10.0412 6.5958 11.8395 6.68454C11.7504 6.34719 11.7084 5.99917 11.7146 5.65033C11.6811 4.7284 11.9327 3.81856 12.4351 3.04469C12.9374 2.27082 13.6662 1.67053 14.5221 1.32556C15.3781 0.980584 16.3196 0.907694 17.2184 1.11681C18.1173 1.32593 18.9298 1.80689 19.5454 2.4942C20.5573 2.29008 21.5279 1.91843 22.4173 1.39461C22.08 2.45935 21.3625 3.36277 20.4016 3.93259C21.2992 3.80895 22.1743 3.55673 23 3.18368C22.4016 4.10237 21.6446 4.90739 20.7643 5.56117V5.56117Z" stroke="black" stroke-width="1.5" stroke-linecap="round" stroke-linejoin="round"/>
</svg>
